<?xml version="1.0" standalone="no"?><!DOCTYPE svg PUBLIC "-//W3C//DTD SVG 1.1//EN" "http://www.w3.org/Graphics/SVG/1.1/DTD/svg11.dtd"><svg t="1628433869295" class="icon" viewBox="0 0 1024 1024" version="1.1" xmlns="http://www.w3.org/2000/svg" p-id="3745" xmlns:xlink="http://www.w3.org/1999/xlink" width="200" height="200"><defs><style type="text/css"></style></defs><path d="M852.3 581.6c-34.7 0-63-28.2-63-63 0-34.7 28.2-63 63-63 34.7 0 63 28.2 63 63-0.1 34.7-28.3 63-63 63z m0-103.5c-22.3 0-40.5 18.2-40.5 40.5s18.2 40.5 40.5 40.5 40.5-18.2 40.5-40.5-18.2-40.5-40.5-40.5zM667.5 277.6c-1.7 0-3.4-0.4-5.1-1.2l-170.9-86.9c-5.5-2.8-7.7-9.6-4.9-15.1s9.6-7.7 15.1-4.9l170.9 86.9c5.5 2.8 7.7 9.6 4.9 15.1-2 3.9-5.9 6.1-10 6.1z" fill="#FFAB00" p-id="3746"></path><path d="M667.5 277.6c-5.9 0-10.9-4.6-11.2-10.6L646.1 75.6c-0.3-6.2 4.4-11.5 10.6-11.8 6.1-0.3 11.5 4.4 11.8 10.6l10.2 191.4c0.3 6.2-4.4 11.5-10.6 11.8h-0.6z" fill="#FFAB00" p-id="3747"></path><path d="M496.7 190.7c-3.7 0-7.3-1.8-9.4-5.1-3.4-5.2-1.9-12.1 3.3-15.5L651.2 65.6c5.2-3.4 12.1-1.9 15.5 3.3 3.4 5.2 1.9 12.1-3.3 15.5L502.8 188.9c-1.9 1.3-4 1.8-6.1 1.8z" fill="#FFAB00" p-id="3748"></path><path d="M431 960.2L322.4 759.5l-213.6-80.3 157.3-165.3 10.4-228 205.9 98.5 220-60.6L672.3 550l125.6 190.6-224.5 41.3L431 960.2zM168.2 665.6L346 732.5l90.5 167.1L555 751.1l186.9-34.4-104.6-158.6 25-188.3-183.2 50.4-171.4-82L299 528 168.2 665.6z" fill="#6C8CD5" p-id="3749"></path><path d="M429.3 874.6L349.9 728l-171.8-64.7 126.5-133 7.6-166.6 22.4 1-8 174.9-109 114.6 148.1 55.7 83.3 154z" fill="#DFDFF0" p-id="3750"></path></svg>